<svg width="40" height="40" viewBox="0 0 40 40" fill="none" xmlns="http://www.w3.org/2000/svg">
<g id="ic_document">
<path id="Union" fill-rule="evenodd" clip-rule="evenodd" d="M5.51628 4.36748C5.71155 4.1722 5.9764 4.0625 6.25255 4.0625H29.1645C29.436 4.06282 29.6966 4.16918 29.8909 4.35891L29.8908 4.35894L29.8984 4.36618L34.4743 8.76212L34.4769 8.76464C34.5752 8.86112 34.6534 8.97615 34.707 9.10309C34.7609 9.2311 34.7888 9.36861 34.7888 9.50753V9.50765V34.89C34.7888 35.1662 34.6791 35.431 34.4838 35.6263C34.2886 35.8216 34.0237 35.9313 33.7476 35.9313H6.25255C5.97639 35.9313 5.71155 35.8216 5.51628 35.6263C5.32101 35.431 5.2113 35.1662 5.2113 34.89V5.10375C5.2113 4.82759 5.32101 4.56275 5.51628 4.36748ZM6.25255 1.5625C5.31336 1.5625 4.41263 1.93559 3.74851 2.59971C3.0844 3.26382 2.7113 4.16455 2.7113 5.10375V34.89C2.7113 35.8292 3.0844 36.7299 3.74851 37.394C4.41263 38.0582 5.31336 38.4313 6.25255 38.4313H33.7476C34.6867 38.4313 35.5875 38.0582 36.2516 37.394C36.9157 36.7299 37.2888 35.8292 37.2888 34.89V9.50753V9.50741C37.2888 9.0348 37.1941 8.56698 37.0104 8.13151C36.8268 7.69605 36.5578 7.30176 36.2193 6.97188L36.2194 6.97185L36.2128 6.96556L31.6378 2.57058L31.6337 2.56654C30.9732 1.92347 30.088 1.56322 29.166 1.5625H29.1651H6.25255ZM10.8351 20.5171C10.1447 20.5171 9.58506 21.0767 9.58506 21.7671C9.58506 22.4574 10.1447 23.0171 10.8351 23.0171H29.1651C29.8554 23.0171 30.4151 22.4574 30.4151 21.7671C30.4151 21.0767 29.8554 20.5171 29.1651 20.5171H10.8351ZM9.58506 28.6408C9.58506 27.9505 10.1447 27.3908 10.8351 27.3908H29.1651C29.8554 27.3908 30.4151 27.9505 30.4151 28.6408C30.4151 29.3312 29.8554 29.8908 29.1651 29.8908H10.8351C10.1447 29.8908 9.58506 29.3312 9.58506 28.6408ZM10.8351 13.7502C10.1447 13.7502 9.58506 14.3099 9.58506 15.0002C9.58506 15.6906 10.1447 16.2502 10.8351 16.2502H20.8351C21.5254 16.2502 22.0851 15.6906 22.0851 15.0002C22.0851 14.3099 21.5254 13.7502 20.8351 13.7502H10.8351Z" fill="currentColor"/>
</g>
</svg>
