<svg width="24" height="24" viewBox="0 0 24 24" fill="none" xmlns="http://www.w3.org/2000/svg">
<g clip-path="url(#clip0_163_1219)">
<path fill-rule="evenodd" clip-rule="evenodd" d="M12 2.4375C6.71878 2.4375 2.4375 6.71878 2.4375 12C2.4375 17.2812 6.71878 21.5625 12 21.5625C17.2812 21.5625 21.5625 17.2812 21.5625 12C21.5625 6.71878 17.2812 2.4375 12 2.4375ZM0.9375 12C0.9375 5.89035 5.89035 0.9375 12 0.9375C18.1096 0.9375 23.0625 5.89035 23.0625 12C23.0625 18.1096 18.1096 23.0625 12 23.0625C5.89035 23.0625 0.9375 18.1096 0.9375 12ZM9.875 10.625C9.875 10.2108 10.2108 9.875 10.625 9.875H11.3125C11.6938 9.875 12.0594 10.0265 12.329 10.296C12.5985 10.5656 12.75 10.9312 12.75 11.3125V14.75C12.75 14.9158 12.8158 15.0747 12.9331 15.1919C13.0503 15.3092 13.2092 15.375 13.375 15.375H14.0625C14.4767 15.375 14.8125 15.7108 14.8125 16.125C14.8125 16.5392 14.4767 16.875 14.0625 16.875H13.375C12.8114 16.875 12.2709 16.6511 11.8724 16.2526C11.4739 15.8541 11.25 15.3136 11.25 14.75V11.375H10.625C10.2108 11.375 9.875 11.0392 9.875 10.625ZM12 8.33333C12.5063 8.33333 12.9167 7.92293 12.9167 7.41667C12.9167 6.91041 12.5063 6.5 12 6.5C11.4937 6.5 11.0833 6.91041 11.0833 7.41667C11.0833 7.92293 11.4937 8.33333 12 8.33333Z" fill="#2E333D"/>
</g>
<defs>
<clipPath id="clip0_163_1219">
<rect width="24" height="24" fill="white"/>
</clipPath>
</defs>
</svg>
