<svg width="48" height="48" viewBox="0 0 48 48" fill="none" xmlns="http://www.w3.org/2000/svg">
<path fill-rule="evenodd" clip-rule="evenodd" d="M7.60127 5C7.25962 4.99985 6.9213 5.06703 6.60563 5.1977C6.28996 5.32837 6.00314 5.51998 5.76156 5.76156C5.51998 6.00314 5.32837 6.28996 5.1977 6.60563C5.06703 6.9213 4.99985 7.25963 5 7.60127L5 7.60194L5 40.4022L5 40.4029C5.00024 40.7441 5.06764 41.0819 5.19836 41.3971C5.32917 41.7125 5.52082 41.9991 5.76237 42.2404C6.00392 42.4818 6.29064 42.6731 6.60616 42.8037C6.92168 42.9342 7.25982 43.0013 7.60127 43.0012H7.60194H40.4022C41.0914 43.0009 41.7523 42.7269 42.2396 42.2396C42.7269 41.7523 43.0008 41.0914 43.0012 40.4022V15.9336H36.3009C35.1782 15.9336 34.1014 15.4876 33.3075 14.6937C32.5135 13.8998 32.0675 12.823 32.0675 11.7002V5H7.60194L7.60127 5ZM33.5675 2H7.60199C6.86636 1.99975 6.13789 2.14444 5.45819 2.42581C4.77831 2.70725 4.16055 3.11992 3.64024 3.64024C3.11992 4.16055 2.70725 4.77831 2.42581 5.45819C2.14445 6.13788 1.99976 6.86633 2 7.60194V40.4029V40.4035C2.00033 41.1389 2.1455 41.8671 2.42724 42.5464C2.70897 43.2257 3.12175 43.8429 3.642 44.3627C4.16225 44.8825 4.77978 45.2947 5.45934 45.5758C6.1387 45.8569 6.86674 46.0014 7.60194 46.0012H7.6026H40.4029H40.4035C41.8879 46.0005 43.3113 45.4105 44.3609 44.3609C45.4105 43.3113 46.0005 41.8879 46.0012 40.4035V40.4029V14.4371C46.0012 14.4359 46.0012 14.4348 46.0012 14.4336C46.0012 14.4325 46.0012 14.4314 46.0012 14.4302V14.2004V14.2001C46.001 13.6438 45.8913 13.0931 45.6782 12.5793C45.4651 12.0655 45.1529 11.5987 44.7593 11.2056L36.7955 3.2418L36.7952 3.24149L36.7949 3.24114C36.4019 2.84789 35.9354 2.53588 35.4219 2.32293C34.9081 2.10985 34.3573 2.00012 33.8011 2H33.8008H33.5675ZM35.0675 5.75645V11.7002C35.0675 12.0274 35.1975 12.3411 35.4288 12.5724C35.6601 12.8037 35.9738 12.9336 36.3009 12.9336H42.2447L35.0675 5.75645ZM8.83355 21.2671C8.83355 20.4387 9.50512 19.7671 10.3335 19.7671H15.8004H21.2672C22.0956 19.7671 22.7672 20.4387 22.7672 21.2671V24.0005C22.7672 24.8289 22.0956 25.5005 21.2672 25.5005C20.4388 25.5005 19.7672 24.8289 19.7672 24.0005V22.7671H17.3004V30.7009H18.5337C19.3621 30.7009 20.0337 31.3724 20.0337 32.2009C20.0337 33.0293 19.3621 33.7009 18.5337 33.7009H13.0669C12.2384 33.7009 11.5669 33.0293 11.5669 32.2009C11.5669 31.3724 12.2384 30.7009 13.0669 30.7009H14.3004V22.7671H11.8335V24.0005C11.8335 24.8289 11.162 25.5005 10.3335 25.5005C9.50512 25.5005 8.83355 24.8289 8.83355 24.0005V21.2671ZM28.101 29.7896C27.2726 29.7894 26.6008 30.4608 26.6006 31.2892C26.6004 32.1176 27.2718 32.7894 28.1002 32.7896L33.1152 32.7909C33.9436 32.7911 34.6154 32.1197 34.6156 31.2913C34.6158 30.4629 33.9444 29.7911 33.116 29.7909L28.101 29.7896ZM26.6006 23.0894C26.6006 22.261 27.2722 21.5894 28.1006 21.5894H37.6676C38.496 21.5894 39.1676 22.261 39.1676 23.0894C39.1676 23.9178 38.496 24.5894 37.6676 24.5894H28.1006C27.2722 24.5894 26.6006 23.9178 26.6006 23.0894Z" fill="#2E333D"/>
</svg>
