<svg width="60" height="72" viewBox="0 0 60 72" fill="none" xmlns="http://www.w3.org/2000/svg">
<g clip-path="url(#clip0_919_564)">
<path d="M56.6333 56.16C53.6273 54.84 37.6353 48 33.1864 45.48C32.1042 44.88 30.6613 44.88 29.5792 45.6C26.8136 47.28 24.1683 48.72 21.7635 50.04L17.5551 46.32C16.4729 45.36 14.7896 45.12 13.5872 45.84L1.32265 53.16C0.841683 52.44 0.480962 51.6 0 50.76C4.32866 63.12 16.1122 72 29.9399 72C43.7675 72 55.5511 63.12 59.8798 50.76C59.0381 52.68 57.8357 54.48 56.6333 56.16ZM13.1062 54.84C14.0681 52.92 14.0681 50.64 14.5491 48.72C14.5491 48.6 14.5491 48.48 14.6693 48.48C15.0301 47.28 15.7515 46.68 16.2325 46.44C16.4729 46.32 16.5932 46.32 16.5932 46.32C16.5932 46.32 16.8337 46.44 16.9539 46.68C17.7956 47.4 19.8397 49.32 20.9218 50.28L21.0421 50.4C18.2766 51.96 15.6313 53.4 13.1062 54.84ZM38.5972 68.28C38.8377 66.24 38.5972 63.84 37.515 61.8C37.1543 61.08 36.6733 60.36 36.0721 59.88C29.5792 53.64 27.5351 49.32 32.4649 45.96C38.3567 49.2 52.7856 55.44 56.1523 56.88C51.7034 62.4 45.5711 66.48 38.5972 68.28Z" fill="#95A84B"/>
<path d="M29.9399 6.5C43.0461 6.5 54.4689 10.2 59.8798 21.24C55.6713 8.88 43.8878 0 29.9399 0C16.1122 0 4.32866 8.88 0 21.24C5.41082 10.2 16.8337 6.5 29.9399 6.5Z" fill="#95A84B"/>
<path d="M22 19C21.1026 24.5641 20.5641 25.1026 15 26C20.5641 26.8974 21.1026 27.4359 22 33C22.8974 27.4359 23.4359 26.8974 29 26C24.1538 25.2821 23.0769 24.7436 22.359 20.7949C22.359 20.2564 22.1795 19.7179 22 19Z" fill="#95A84B"/>
<path d="M40.5 15C40.08 17.8 39.8 18.08 37 18.5C39.8 18.92 40.08 19.2 40.5 22C40.92 19.2 41.2 18.92 44 18.5C41.62 18.08 41.06 17.8 40.64 15.98C40.64 15.7 40.5 15.42 40.5 15Z" fill="#95A84B"/>
</g>
<defs>
<clipPath id="clip0_919_564">
<rect width="60" height="72" fill="white"/>
</clipPath>
</defs>
</svg>
