<svg width="25" height="24" viewBox="0 0 25 24" fill="none" xmlns="http://www.w3.org/2000/svg">
<path fill-rule="evenodd" clip-rule="evenodd" d="M14.3028 2.1736C14.4535 1.94833 14.6676 1.7728 14.918 1.66922C15.1685 1.56563 15.4441 1.53864 15.7099 1.59164C15.9756 1.64463 16.2196 1.77517 16.4111 1.96678C16.411 1.9667 16.4112 1.96686 16.4111 1.96678L22.3717 7.92735C22.7451 8.30073 22.9548 8.80714 22.9548 9.33518C22.9548 9.86322 22.7451 10.3696 22.3717 10.743L16.4113 16.7033C16.4113 16.7034 16.4114 16.7033 16.4113 16.7033C16.2198 16.8949 15.9756 17.0257 15.7099 17.0787C15.4441 17.1317 15.1685 17.1047 14.918 17.0011C14.6676 16.8976 14.4535 16.722 14.3028 16.4968C14.152 16.2715 14.0715 16.0066 14.0713 15.7356L14.0728 12.6841C13.4456 12.6629 12.8178 12.7516 12.2182 12.9477C11.4154 13.2103 10.6857 13.6582 10.0881 14.2551C9.06532 15.278 8.49073 16.6654 8.49073 18.1119C8.49073 19.5587 9.06544 20.9461 10.0884 21.9691C10.381 22.2617 10.3814 22.736 10.0892 23.029C9.797 23.322 9.32271 23.3231 9.02928 23.0313C7.64551 21.6554 6.66627 19.9259 6.19844 18.0314C5.73061 16.1369 5.79216 14.1504 6.37638 12.2885C6.96059 10.4266 8.04502 8.761 9.51132 7.47342C10.8187 6.32535 12.385 5.51718 14.0713 5.11544V2.93528C14.0715 2.66424 14.152 2.39887 14.3028 2.1736ZM15.5713 3.24833L15.5713 5.72573C15.5713 6.08973 15.31 6.40117 14.9515 6.46435C13.3004 6.75533 11.7609 7.49428 10.5011 8.60054C9.24125 9.70681 8.30952 11.1379 7.80757 12.7376C7.49745 13.7259 7.35874 14.7552 7.39282 15.7814C7.73572 14.8173 8.29041 13.9315 9.02776 13.1941C9.79193 12.4309 10.7253 11.8579 11.7519 11.5221C12.7784 11.1863 13.8695 11.0968 14.937 11.2609C15.3031 11.3172 15.5733 11.6322 15.5731 12.0026L15.5715 15.4219L21.311 9.68235C21.4031 9.59028 21.4548 9.4654 21.4548 9.33518C21.4548 9.20497 21.4031 9.08009 21.311 8.98801L15.5713 3.24833Z" fill="#2E333D"/>
</svg>
