<svg width="36" height="24" viewBox="0 0 36 24" fill="none" xmlns="http://www.w3.org/2000/svg">
<g clip-path="url(#clip0_152_456)">
<path d="M0.00256348 0H36.0026V24H0.00256348V0Z" fill="#055E1C"/>
<path d="M12.9083 14.3475C12.9083 15.212 13.5925 15.9127 14.4366 15.9127H19.0215C19.0215 16.633 19.5918 17.2171 20.2952 17.2171H21.8235C22.5269 17.2171 23.0971 16.6331 23.0971 15.9127V14.3475H12.9083ZM23.2243 6.78223V10.4344C23.2243 11.0098 22.7672 11.4778 22.2054 11.4778V13.0431C23.6099 13.0431 24.7525 11.8729 24.7525 10.4344V6.78223H23.2243ZM12.2715 10.4345C12.2715 11.0098 11.8144 11.4779 11.2526 11.4779V13.0431C12.6571 13.0431 13.7997 11.8729 13.7997 10.4345V6.7823H12.2714V10.4345H12.2715Z" fill="white"/>
<path d="M20.9319 6.78198H22.4602V10.4342H20.9319V6.78198ZM18.6394 8.86921C18.6394 9.01307 18.5251 9.13007 18.3846 9.13007C18.2442 9.13007 18.1299 9.01307 18.1299 8.86921V6.78219H16.6016V8.86921C16.6016 9.01307 16.4873 9.13007 16.3468 9.13007C16.2064 9.13007 16.0921 9.01307 16.0921 8.86921V6.78219H14.5638V8.86921C14.5638 9.87609 15.3637 10.6953 16.3468 10.6953C16.7254 10.6953 17.0766 10.5734 17.3657 10.3664C17.6547 10.5734 18.0059 10.6953 18.3846 10.6953C18.4608 10.6953 18.5357 10.6898 18.6096 10.6802C18.5013 11.1371 18.0994 11.4779 17.6204 11.4779V13.0431C19.025 13.0431 20.1676 11.8729 20.1676 10.4344V6.78219H18.6392L18.6394 8.86921Z" fill="white"/>
<path d="M14.5638 11.4775H16.856V13.0428H14.5638V11.4775Z" fill="white"/>
</g>
<defs>
<clipPath id="clip0_152_456">
<rect width="36" height="24" fill="white" transform="translate(0.00256348)"/>
</clipPath>
</defs>
</svg>
