<svg width="25" height="16" viewBox="0 0 25 16" fill="none" xmlns="http://www.w3.org/2000/svg">
<g clip-path="url(#clip0_621_1981)">
<path d="M0 0H25V16H0V0Z" fill="#055E1C"/>
<path d="M8.9623 9.5651C8.9623 10.1414 9.43745 10.6086 10.0236 10.6086H13.2076C13.2076 11.0888 13.6036 11.4782 14.0921 11.4782H15.1534C15.6419 11.4782 16.0379 11.0888 16.0379 10.6086V9.5651H8.9623ZM16.1262 4.52158V6.95636C16.1262 7.33994 15.8088 7.65198 15.4186 7.65198V8.69547C16.394 8.69547 17.1875 7.91533 17.1875 6.95636V4.52158H16.1262ZM8.52007 6.95641C8.52007 7.33998 8.20269 7.65203 7.8125 7.65203V8.69552C8.78789 8.69552 9.58135 7.91538 9.58135 6.95641V4.52162H8.52002V6.95641H8.52007Z" fill="white"/>
<path d="M14.5342 4.52133H15.5955V6.95612H14.5342V4.52133ZM12.9422 5.91282C12.9422 6.00872 12.8629 6.08672 12.7653 6.08672C12.6677 6.08672 12.5884 6.00872 12.5884 5.91282V4.52147H11.5271V5.91282C11.5271 6.00872 11.4477 6.08672 11.3502 6.08672C11.2526 6.08672 11.1733 6.00872 11.1733 5.91282V4.52147H10.1119V5.91282C10.1119 6.58407 10.6674 7.13021 11.3501 7.13021C11.6131 7.13021 11.857 7.04897 12.0577 6.91097C12.2584 7.04897 12.5023 7.13021 12.7653 7.13021C12.8182 7.13021 12.8702 7.12655 12.9215 7.12013C12.8463 7.42477 12.5673 7.65193 12.2346 7.65193V8.69541C13.21 8.69541 14.0034 7.91527 14.0034 6.9563V4.52147H12.9421L12.9422 5.91282Z" fill="white"/>
<path d="M10.1119 7.65173H11.7038V8.69522H10.1119V7.65173Z" fill="white"/>
</g>
<defs>
<clipPath id="clip0_621_1981">
<rect width="25" height="16" rx="4" fill="white"/>
</clipPath>
</defs>
</svg>
