<svg width="24" height="24" viewBox="0 0 24 24" fill="none" xmlns="http://www.w3.org/2000/svg">
<path fill-rule="evenodd" clip-rule="evenodd" d="M13.1722 6.33771L13.1738 6.34114C13.3685 6.132 13.6255 6 13.9102 6C14.5107 6 15 6.576 15 7.28571C15 7.66114 14.8609 7.99542 14.6449 8.23028L14.6465 8.232L11.1611 12L14.6465 15.7663L14.6449 15.7697C14.8609 16.0046 15 16.3389 15 16.7143C15 17.424 14.5107 18 13.9102 18C13.6255 18 13.3685 17.868 13.1738 17.6588L13.1722 17.6623L8.808 12.948C8.58382 12.7046 8.45455 12.36 8.45455 12C8.45455 11.6383 8.58382 11.2954 8.808 11.052L13.1722 6.33771Z" fill="#2E333D"/>
</svg>
