<svg width="48" height="48" viewBox="0 0 48 48" fill="none" xmlns="http://www.w3.org/2000/svg">
<circle cx="24" cy="24" r="23.5" fill="#FBF8EC" stroke="#F6EED1"/>
<circle cx="24" cy="24" r="18" fill="#DBB93F"/>
<path fill-rule="evenodd" clip-rule="evenodd" d="M24 17C23.4477 17 23 17.4477 23 18V26C23 26.5523 23.4477 27 24 27C24.5523 27 25 26.5523 25 26V18C25 17.4477 24.5523 17 24 17ZM24 31C24.5523 31 25 30.5523 25 30C25 29.4477 24.5523 29 24 29C23.4477 29 23 29.4477 23 30C23 30.5523 23.4477 31 24 31Z" fill="white"/>
</svg>
