<svg width="24" height="24" viewBox="0 0 24 24" fill="none" xmlns="http://www.w3.org/2000/svg">
<g clip-path="url(#clip0_153_3536)">
<path fill-rule="evenodd" clip-rule="evenodd" d="M2.68762 2.43748C2.54955 2.43748 2.43762 2.54941 2.43762 2.68749V6.75175L6.75188 2.43748H2.68762ZM8.56254 0.937485H2.68762C1.72112 0.937485 0.937622 1.72099 0.937622 2.68749V8.56241V15.8123C0.937622 16.7788 1.72113 17.5623 2.68762 17.5623H11.3125C11.7267 17.5623 12.0625 17.2265 12.0625 16.8123C12.0625 16.3981 11.7267 16.0623 11.3125 16.0623H2.68762C2.54955 16.0623 2.43762 15.9504 2.43762 15.8123V8.87307L8.8732 2.43748H15.1268L19.0321 6.34277C19.325 6.63566 19.7999 6.63566 20.0927 6.34277C20.3856 6.04987 20.3856 5.575 20.0927 5.28211L17.2481 2.43748H21.3124C21.4505 2.43748 21.5624 2.54941 21.5624 2.68748V5.81244C21.5624 6.22665 21.8982 6.56244 22.3124 6.56244C22.7266 6.56244 23.0624 6.22665 23.0624 5.81244V2.68748C23.0624 1.72099 22.2789 0.937485 21.3124 0.937485H15.4375H8.56254ZM16.2832 15.4742C16.2965 15.4825 16.3094 15.4913 16.3221 15.5004C16.8565 15.8555 17.4978 16.0623 18.1874 16.0623C20.0514 16.0623 21.5624 14.5513 21.5624 12.6874C21.5624 10.8234 20.0514 9.31241 18.1874 9.31241C16.3235 9.31241 14.8125 10.8234 14.8125 12.6874C14.8125 13.8448 15.3952 14.8662 16.2832 15.4742ZM13.3125 12.6874C13.3125 14.1994 14.0008 15.5506 15.0813 16.4448L14.4092 21.3837C14.3598 21.679 14.4038 21.9826 14.5352 22.252C14.6696 22.5272 14.8883 22.7524 15.1594 22.8947C15.4306 23.0371 15.7402 23.0891 16.043 23.0433C16.3458 22.9975 16.6261 22.8562 16.8431 22.6401L16.8442 22.639L18.192 21.2905L19.5398 22.639L19.5409 22.6401C19.7578 22.8562 20.0381 22.9975 20.341 23.0433C20.6438 23.0891 20.9533 23.0371 21.2245 22.8947C21.4957 22.7524 21.7144 22.5272 21.8487 22.252C21.9802 21.9826 22.0242 21.679 21.9748 21.3837L21.3018 16.438C22.3775 15.5438 23.0624 14.1955 23.0624 12.6874C23.0624 9.995 20.8798 7.81241 18.1874 7.81241C15.4951 7.81241 13.3125 9.995 13.3125 12.6874ZM20.4696 21.4474L19.8989 17.2534C19.3664 17.4531 18.7897 17.5623 18.1874 17.5623C17.5885 17.5623 17.0147 17.4543 16.4846 17.2567L15.9144 21.4474L17.6615 19.6994C17.8022 19.5587 17.993 19.4796 18.192 19.4796C18.391 19.4796 18.5818 19.5587 18.7225 19.6994L20.4696 21.4474Z" fill="currentColor"/>
</g>
<defs>
<clipPath id="clip0_153_3536">
<rect width="24" height="24" fill="white"/>
</clipPath>
</defs>
</svg>
