<svg width="20" height="20" viewBox="0 0 20 20" fill="none" xmlns="http://www.w3.org/2000/svg">
<g id="ic_certificate_revoked" clip-path="url(#clip0_4734_8284)">
<path id="Union" fill-rule="evenodd" clip-rule="evenodd" d="M0.833252 2.7085H6.9777H13.1221H19.2666C19.6118 2.7085 19.8916 2.98832 19.8916 3.3335V7.02016C19.8916 7.36534 19.6118 7.64516 19.2666 7.64516C18.9214 7.64516 18.6416 7.36534 18.6416 7.02016V3.9585H14.631L17.2507 6.57822C17.4948 6.8223 17.4948 7.21803 17.2507 7.4621C17.0067 7.70618 16.6109 7.70618 16.3669 7.4621L12.8633 3.9585H7.23658L1.45825 9.73682V10.4479L7.23658 16.2263H9.43547C9.78065 16.2263 10.0605 16.5061 10.0605 16.8513C10.0605 17.1965 9.78065 17.4763 9.43547 17.4763H6.9777H0.833252C0.488074 17.4763 0.208252 17.1965 0.208252 16.8513V10.7068V9.47794V3.3335C0.208252 2.98832 0.488074 2.7085 0.833252 2.7085ZM1.45825 3.9585H5.46881L1.45825 7.96906V3.9585ZM1.45825 16.2263V12.2157L5.46881 16.2263H1.45825ZM11.4583 13.3335C11.4583 11.3775 13.0439 9.79183 14.9999 9.79183C16.9559 9.79183 18.5416 11.3775 18.5416 13.3335C18.5416 15.2895 16.9559 16.8752 14.9999 16.8752C13.0439 16.8752 11.4583 15.2895 11.4583 13.3335ZM14.9999 8.54183C12.3536 8.54183 10.2083 10.6871 10.2083 13.3335C10.2083 15.9799 12.3536 18.1252 14.9999 18.1252C17.6463 18.1252 19.7916 15.9799 19.7916 13.3335C19.7916 10.6871 17.6463 8.54183 14.9999 8.54183ZM17.1085 11.2249C17.3526 11.469 17.3526 11.8647 17.1085 12.1088L15.8838 13.3335L17.1085 14.5582C17.3526 14.8023 17.3526 15.198 17.1085 15.4421C16.8644 15.6862 16.4687 15.6862 16.2246 15.4421L14.9999 14.2174L13.7752 15.4421C13.5311 15.6862 13.1354 15.6862 12.8913 15.4421C12.6472 15.198 12.6472 14.8023 12.8913 14.5582L14.116 13.3335L12.8913 12.1088C12.6472 11.8647 12.6472 11.469 12.8913 11.2249C13.1354 10.9808 13.5311 10.9808 13.7752 11.2249L14.9999 12.4496L16.2246 11.2249C16.4687 10.9808 16.8644 10.9808 17.1085 11.2249Z" fill="#DD465B"/>
</g>
<defs>
<clipPath id="clip0_4734_8284">
<rect width="20" height="20" fill="white"/>
</clipPath>
</defs>
</svg>
