<svg width="24" height="24" viewBox="0 0 24 24" fill="none" xmlns="http://www.w3.org/2000/svg">
<path fill-rule="evenodd" clip-rule="evenodd" d="M7.62695 1.875C8.04117 1.875 8.37695 2.21079 8.37695 2.625V4.375H15.627V2.625C15.627 2.21079 15.9627 1.875 16.377 1.875C16.7912 1.875 17.127 2.21079 17.127 2.625V4.375H20.127C21.2315 4.375 22.127 5.27043 22.127 6.375V10.125V20.125C22.127 21.2296 21.2315 22.125 20.127 22.125H3.87695C2.77238 22.125 1.87695 21.2296 1.87695 20.125V10.125V6.375C1.87695 5.27043 2.77238 4.375 3.87695 4.375H6.87695V2.625C6.87695 2.21079 7.21274 1.875 7.62695 1.875ZM15.627 5.875V7C15.627 7.41421 15.9627 7.75 16.377 7.75C16.7912 7.75 17.127 7.41421 17.127 7V5.875H20.127C20.4031 5.875 20.627 6.09886 20.627 6.375V9.375H3.37695V6.375C3.37695 6.09886 3.60081 5.875 3.87695 5.875H6.87695V7C6.87695 7.41421 7.21274 7.75 7.62695 7.75C8.04117 7.75 8.37695 7.41421 8.37695 7V5.875H15.627ZM20.627 10.875V20.125C20.627 20.4011 20.4031 20.625 20.127 20.625H3.87695C3.60081 20.625 3.37695 20.4011 3.37695 20.125V10.875H20.627Z" fill="#2E333D"/>
</svg>
