<svg width="24" height="24" viewBox="0 0 24 24" fill="none" xmlns="http://www.w3.org/2000/svg">
<g id="ic_download">
<path id="Vector (Stroke)" fill-rule="evenodd" clip-rule="evenodd" d="M12 4C12.3878 4 12.7021 4.31435 12.7021 4.70213V13.9914L15.6227 11.0709C15.8969 10.7967 16.3414 10.7967 16.6156 11.0709C16.8898 11.3451 16.8898 11.7897 16.6156 12.0639L12.4965 16.183C12.2223 16.4572 11.7777 16.4572 11.5035 16.183L7.38437 12.0639C7.11017 11.7897 7.11017 11.3451 7.38437 11.0709C7.65857 10.7967 8.10313 10.7967 8.37733 11.0709L11.2979 13.9914V4.70213C11.2979 4.31435 11.6122 4 12 4ZM1.70213 14.9844C2.0899 14.9844 2.40426 15.2987 2.40426 15.6865V17.0596C2.40426 17.6017 2.6196 18.1216 3.00292 18.5049C3.38624 18.8882 3.90613 19.1035 4.44823 19.1035H19.5518C20.0939 19.1035 20.6138 18.8882 20.9971 18.5049C21.3804 18.1216 21.5957 17.6017 21.5957 17.0596V15.6865C21.5957 15.2987 21.9101 14.9844 22.2979 14.9844C22.6856 14.9844 23 15.2987 23 15.6865V17.0596C23 17.9741 22.6367 18.8512 21.99 19.4978C21.3434 20.1445 20.4663 20.5078 19.5518 20.5078H4.44823C3.5337 20.5078 2.65663 20.1445 2.00996 19.4978C1.36329 18.8512 1 17.9741 1 17.0596V15.6865C1 15.2987 1.31435 14.9844 1.70213 14.9844Z" fill="#2E333D"/>
</g>
</svg>
