<svg width="48" height="48" viewBox="0 0 48 48" fill="none" xmlns="http://www.w3.org/2000/svg">
<path fill-rule="evenodd" clip-rule="evenodd" d="M25.5 8C25.5 7.17157 24.8284 6.5 24 6.5C23.1716 6.5 22.5 7.17157 22.5 8V11C22.5 11.8284 23.1716 12.5 24 12.5C24.8284 12.5 25.5 11.8284 25.5 11V8ZM6.66667 16.5C5.60963 16.5 4.56819 16.8765 3.7776 17.588C2.9818 18.3042 2.5 19.3116 2.5 20.4V27.6C2.5 28.6884 2.9818 29.6958 3.7776 30.412C4.56819 31.1235 5.60963 31.5 6.66667 31.5H41.3333C42.3904 31.5 43.4318 31.1235 44.2224 30.412C45.0182 29.6958 45.5 28.6884 45.5 27.6V20.4C45.5 19.3116 45.0182 18.3042 44.2224 17.588C43.4318 16.8765 42.3904 16.5 41.3333 16.5H33.1876C32.674 16.5 32.1961 16.7628 31.9209 17.1965C31.1447 18.42 30.0103 19.4561 28.6172 20.184C27.2235 20.9122 25.6301 21.3006 24 21.3006C22.3699 21.3006 20.7765 20.9122 19.3828 20.184C17.9897 19.4561 16.8552 18.42 16.0791 17.1965C15.8039 16.7628 15.326 16.5 14.8124 16.5H6.66667ZM5.7845 19.8179C5.9941 19.6292 6.30922 19.5 6.66667 19.5H14.0266C15.0591 20.8788 16.4177 22.0196 17.9935 22.8429C19.8269 23.8009 21.8986 24.3006 24 24.3006C26.1014 24.3006 28.1731 23.8009 30.0065 22.8429C31.5823 22.0196 32.9409 20.8788 33.9734 19.5H41.3333C41.6908 19.5 42.0059 19.6292 42.2155 19.8179C42.4199 20.0018 42.5 20.2154 42.5 20.4V27.6C42.5 27.7846 42.4199 27.9982 42.2155 28.1821C42.0059 28.3708 41.6908 28.5 41.3333 28.5H6.66667C6.30922 28.5 5.9941 28.3708 5.7845 28.1821C5.5801 27.9982 5.5 27.7846 5.5 27.6V20.4C5.5 20.2154 5.5801 20.0018 5.7845 19.8179ZM15.25 8.70096C15.9674 8.28675 16.8848 8.53256 17.299 9.25L18.799 11.8481C19.2133 12.5655 18.9674 13.4829 18.25 13.8971C17.5326 14.3113 16.6152 14.0655 16.201 13.3481L14.701 10.75C14.2867 10.0326 14.5326 9.11518 15.25 8.70096ZM32.799 10.75C33.2133 10.0326 32.9674 9.11518 32.25 8.70096C31.5326 8.28675 30.6152 8.53256 30.201 9.25L28.701 11.8481C28.2867 12.5655 28.5326 13.4829 29.25 13.8971C29.9674 14.3113 30.8848 14.0655 31.299 13.3481L32.799 10.75Z" fill="#8A98B2"/>
</svg>
