<svg width="24" height="24" viewBox="0 0 24 24" fill="none" xmlns="http://www.w3.org/2000/svg">
<path fill-rule="evenodd" clip-rule="evenodd" d="M19.4357 3.53656C18.7506 3.25271 17.9967 3.17836 17.2694 3.32291C16.5421 3.46745 15.874 3.82441 15.3495 4.34864C14.8292 4.86868 14.4735 5.53016 14.3264 6.25064H3.00201C2.5878 6.25064 2.25201 6.58643 2.25201 7.00064C2.25201 7.41486 2.5878 7.75064 3.00201 7.75064H14.3264C14.374 7.98361 14.4438 8.21261 14.5356 8.43442C14.8192 9.11961 15.2995 9.70534 15.9159 10.1176C16.5323 10.5298 17.2571 10.75 17.9987 10.7503H17.999C18.9935 10.7503 19.9474 10.3553 20.6508 9.65225C21.3542 8.94916 21.7496 7.99551 21.75 7.00097L21.0003 7.00064H21.75C21.75 6.2591 21.5301 5.53421 21.1182 4.91761C20.7062 4.30102 20.1207 3.82042 19.4357 3.53656ZM19.5903 8.59136C20.0124 8.16951 20.2496 7.59735 20.25 7.00064L17.9993 9.25031C18.596 9.25022 19.1683 9.01321 19.5903 8.59136ZM19.8709 5.7509C20.118 6.12074 20.2499 6.55553 20.25 7.00031L17.999 9.25031C17.5542 9.25004 17.1195 9.11794 16.7498 8.87068C16.3799 8.62337 16.0917 8.27195 15.9216 7.86086C15.7515 7.44977 15.7071 6.99747 15.794 6.56114C15.8809 6.12482 16.0953 5.72406 16.4099 5.40954C16.7246 5.09501 17.1255 4.88085 17.5618 4.79413C17.9982 4.70741 18.4505 4.75202 18.8615 4.92232C19.2725 5.09262 19.6238 5.38097 19.8709 5.7509ZM10.0002 14.7499C10.2957 14.7497 10.5884 14.8078 10.8614 14.9208C11.1345 15.0338 11.3826 15.1995 11.5916 15.4084C11.8006 15.6173 11.9664 15.8654 12.0796 16.1384C12.1927 16.4114 12.2509 16.704 12.2509 16.9995V17.0006C12.2507 17.4451 12.1188 17.8796 11.8718 18.2493C11.6247 18.6192 11.2734 18.9075 10.8624 19.0778C10.4514 19.2481 9.99907 19.2928 9.56271 19.206C9.12635 19.1193 8.72549 18.9051 8.41083 18.5906C8.09617 18.2761 7.88183 17.8753 7.79492 17.439C7.708 17.0027 7.75241 16.5504 7.92253 16.1393C8.09264 15.7282 8.38083 15.3768 8.75066 15.1295C9.12048 14.8822 9.55533 14.7501 10.0002 14.7499ZM13.6751 17.7495C13.5784 18.2234 13.3904 18.6765 13.1191 19.0826C12.7071 19.6991 12.1216 20.1797 11.4366 20.4636C10.7515 20.7474 9.99764 20.8218 9.27032 20.6773C8.543 20.5327 7.87487 20.1758 7.35041 19.6515C6.83028 19.1316 6.47461 18.4703 6.32745 17.7501H3C2.58579 17.7501 2.25 17.4143 2.25 17.0001C2.25 16.5859 2.58579 16.2501 3 16.2501H6.32722C6.37478 16.0169 6.44465 15.7877 6.53652 15.5657C6.82006 14.8806 7.30041 14.2948 7.91682 13.8826C8.53323 13.4704 9.25802 13.2502 9.99957 13.2499C10.4921 13.2496 10.9799 13.3465 11.435 13.5348C11.8901 13.7231 12.3037 13.9993 12.6521 14.3475C13.0004 14.6957 13.2768 15.1092 13.4653 15.5642C13.5572 15.786 13.6273 16.0155 13.6751 16.2495H21C21.4142 16.2495 21.75 16.5853 21.75 16.9995C21.75 17.4137 21.4142 17.7495 21 17.7495H13.6751Z" fill="#2E333D"/>
</svg>
