<svg width="24" height="24" viewBox="0 0 24 24" fill="none" xmlns="http://www.w3.org/2000/svg">
<path fill-rule="evenodd" clip-rule="evenodd" d="M4.43622 3C3.52488 3 2.65086 3.36293 2.00645 4.00896C1.36203 4.65499 1 5.53119 1 6.44481C1 6.44485 1 6.4449 1 6.44494V16.5552C1 17.4688 1.36203 18.345 2.00645 18.991C2.65086 19.6371 3.52488 20 4.43622 20H19.5638C20.4751 20 21.3491 19.6371 21.9936 18.991C22.638 18.345 23 17.4688 23 16.5552V6.44494C23 6.4449 23 6.44485 23 6.44481C23 5.53119 22.638 4.65499 21.9936 4.00896C21.3491 3.36293 20.4751 3 19.5638 3H4.43622ZM21.1701 8.1L13.8213 12.7057L13.8212 12.7058C13.2751 13.0479 12.644 13.2294 12 13.2294C11.356 13.2294 10.7249 13.0479 10.1788 12.7058L10.1787 12.7057L2.82993 8.1V16.5552C2.82993 16.9823 2.99916 17.3919 3.3004 17.6938C3.60164 17.9958 4.01021 18.1655 4.43622 18.1655H19.5638C19.9898 18.1655 20.3984 17.9958 20.6996 17.6938C21.0008 17.3919 21.1701 16.9823 21.1701 16.5552V8.1ZM3.3004 5.30615C3.60164 5.00416 4.01021 4.8345 4.43622 4.8345H19.5638C19.9898 4.8345 20.3984 5.00416 20.6996 5.30615C20.8886 5.49564 21.0257 5.7275 21.1015 5.97945L12.8513 11.1501L12.8512 11.1502C12.596 11.3101 12.301 11.3949 12 11.3949C11.699 11.3949 11.404 11.3101 11.1488 11.1502L11.1487 11.1501L2.89846 5.97945C2.97434 5.7275 3.11138 5.49564 3.3004 5.30615Z" fill="#2E333D"/>
</svg>
