<svg width="24" height="24" viewBox="0 0 24 24" fill="none" xmlns="http://www.w3.org/2000/svg">
<g id="ic_notification">
<path id="Union" fill-rule="evenodd" clip-rule="evenodd" d="M12 1C12.426 1 12.7714 1.3436 12.7714 1.76744V3.08539C14.5113 3.26127 16.1465 4.02813 17.3942 5.26932C18.8248 6.69256 19.6285 8.62289 19.6285 10.6357C19.6285 13.7916 19.9669 15.5832 20.2781 16.5588C20.433 17.0445 20.5788 17.3201 20.6667 17.4589C20.7091 17.5257 20.738 17.5606 20.7481 17.5722L3.15639 17.6763C3.15905 17.6725 3.16669 17.6616 3.17864 17.6428C3.20255 17.6052 3.24382 17.5363 3.29705 17.4314C3.40346 17.2217 3.55818 16.8671 3.71726 16.3308C4.03559 15.2577 4.37143 13.4566 4.37143 10.6357C4.37143 8.62289 5.17515 6.69256 6.60578 5.26932C7.85342 4.02813 9.48871 3.26127 11.2286 3.08539V1.76744C11.2286 1.3436 11.5739 1 12 1ZM20.7481 17.5722L3.15628 17.6764C2.98119 17.9066 2.95054 18.2155 3.07791 18.4756C3.20713 18.7395 3.47636 18.907 3.77143 18.907H20.2285C20.5559 18.907 20.8476 18.7014 20.9563 18.3941C21.0595 18.1021 20.9759 17.7786 20.7481 17.5722ZM12 4.5814C10.386 4.5814 8.83803 5.21925 7.69674 6.35465C6.55545 7.49004 5.91428 9.02997 5.91428 10.6357C5.91428 13.5759 5.56441 15.5267 5.19703 16.7652C5.13019 16.9906 5.06277 17.1923 4.99679 17.3721H18.9278C18.8875 17.2639 18.8473 17.1477 18.8075 17.023C18.433 15.8488 18.0857 13.8885 18.0857 10.6357C18.0857 9.02997 17.4445 7.49004 16.3032 6.35465C15.1619 5.21925 13.614 4.5814 12 4.5814ZM9.63244 20.5067C10.0225 20.3362 10.4776 20.5125 10.6491 20.9005C10.6889 20.9906 10.8045 21.1348 11.0601 21.262C11.3118 21.3872 11.6423 21.4651 12 21.4651C12.3577 21.4651 12.6882 21.3872 12.9399 21.262C13.1955 21.1348 13.3111 20.9906 13.3509 20.9005C13.5223 20.5125 13.9775 20.3362 14.3675 20.5067C14.7576 20.6773 14.9348 21.1301 14.7633 21.5181C14.5422 22.0186 14.1159 22.393 13.6298 22.6348C13.1399 22.8785 12.5688 23 12 23C11.4312 23 10.8601 22.8785 10.3701 22.6348C9.88404 22.393 9.45776 22.0186 9.23663 21.5181C9.06519 21.1301 9.2424 20.6773 9.63244 20.5067Z" fill="currentColor"/>
</g>
</svg>
