<svg width="24" height="24" viewBox="0 0 24 24" fill="none" xmlns="http://www.w3.org/2000/svg">
<path fill-rule="evenodd" clip-rule="evenodd" d="M3.80381 12.8876C2.30751 9.36696 3.94869 5.29997 7.46949 3.80373C10.9903 2.30749 15.0575 3.9486 16.5538 7.46924C17.684 10.1286 17.0241 13.0997 15.1161 15.0391C15.1025 15.0506 15.0892 15.0628 15.0763 15.0757C15.0633 15.0887 15.051 15.1021 15.0394 15.1159C14.4366 15.7096 13.714 16.2021 12.8881 16.5531C9.36729 18.0494 5.30012 16.4082 3.80381 12.8876ZM15.5033 16.3865C14.8821 16.9189 14.1699 17.3664 13.377 17.7034C9.22086 19.4696 4.41981 17.5324 2.65351 13.3764C0.88721 9.22054 2.82452 4.4197 6.98062 2.65348C11.1367 0.88726 15.9378 2.82449 17.7041 6.9804C18.9603 9.93612 18.3431 13.218 16.3868 15.5025L21.817 20.9332C22.061 21.1773 22.061 21.573 21.8169 21.817C21.5729 22.061 21.1772 22.061 20.9331 21.8169L15.5033 16.3865Z" fill="#2E333D"/>
</svg>
