<svg width="24" height="24" viewBox="0 0 24 24" fill="none" xmlns="http://www.w3.org/2000/svg">
<path fill-rule="evenodd" clip-rule="evenodd" d="M11.5139 4.19526C11.7823 3.93491 12.2177 3.93491 12.4861 4.19526L16.6111 8.19526C16.8796 8.45561 16.8796 8.87772 16.6111 9.13807C16.3427 9.39842 15.9073 9.39842 15.6389 9.13807L12.6875 6.27614V15.3333C12.6875 15.7015 12.3797 16 12 16C11.6203 16 11.3125 15.7015 11.3125 15.3333V6.27614L8.36114 9.13807C8.09265 9.39842 7.65735 9.39842 7.38886 9.13807C7.12038 8.87772 7.12038 8.45561 7.38886 8.19526L11.5139 4.19526ZM1.6875 14.6667C2.0672 14.6667 2.375 14.9651 2.375 15.3333V16.6667C2.375 17.1971 2.5923 17.7058 2.97909 18.0809C3.36589 18.456 3.89049 18.6667 4.4375 18.6667H19.5625C20.1095 18.6667 20.6341 18.456 21.0209 18.0809C21.4077 17.7058 21.625 17.1971 21.625 16.6667V15.3333C21.625 14.9651 21.9328 14.6667 22.3125 14.6667C22.6922 14.6667 23 14.9651 23 15.3333V16.6667C23 17.5507 22.6378 18.3986 21.9932 19.0237C21.3485 19.6488 20.4742 20 19.5625 20H4.4375C3.52582 20 2.65148 19.6488 2.00682 19.0237C1.36216 18.3986 1 17.5507 1 16.6667V15.3333C1 14.9651 1.3078 14.6667 1.6875 14.6667Z" fill="currentColor"/>
</svg>
