<svg width="16" height="16" viewBox="0 0 16 16" fill="none" xmlns="http://www.w3.org/2000/svg">
<path fill-rule="evenodd" clip-rule="evenodd" d="M14.9532 6.92673C13.3155 5.12616 10.6543 3.29254 7.99941 3.33369C5.34449 3.29254 2.68325 5.12615 1.04726 6.92693L1.04725 6.92692L1.04595 6.92837C0.801993 7.19921 0.666992 7.55079 0.666992 7.9153C0.666992 8.27981 0.801993 8.63139 1.04594 8.90223L1.04716 8.90357C2.6464 10.665 5.30053 12.5405 7.99941 12.4987C10.6983 12.5405 13.353 10.665 14.9534 8.9037L14.9547 8.90223C15.1987 8.6314 15.3337 8.27981 15.3337 7.9153C15.3337 7.55079 15.1987 7.1992 14.9547 6.92837L14.9532 6.92673ZM1.58367 7.9153C1.58367 7.77767 1.63454 7.6449 1.72648 7.54251C3.29241 5.8192 5.72269 4.21208 7.99168 4.25036C7.99683 4.25045 8.00199 4.25045 8.00714 4.25036C10.2761 4.21208 12.7063 5.81911 14.2742 7.54258C14.3661 7.64497 14.417 7.7777 14.417 7.9153C14.417 8.05289 14.3661 8.18561 14.2743 8.28799C12.7399 9.97634 10.3164 11.6209 8.00712 11.5821C8.00386 11.582 8.0006 11.582 7.99735 11.582C7.99546 11.582 7.99358 11.582 7.9917 11.5821C5.6824 11.6209 3.2596 9.97637 1.72651 8.28812C1.63455 8.18573 1.58367 8.05295 1.58367 7.9153ZM7.99956 6.08259C8.24037 6.08253 8.47882 6.12992 8.7013 6.22206C8.92378 6.31419 9.12592 6.44927 9.29617 6.61957C9.46642 6.78986 9.60144 6.99204 9.69352 7.21454C9.7856 7.43704 9.83292 7.67551 9.8328 7.91632V7.91644C9.8327 8.27902 9.72509 8.63343 9.52358 8.93486C9.32207 9.23629 9.03571 9.4712 8.7007 9.60989C8.36569 9.74857 7.99707 9.78481 7.64147 9.71402C7.28587 9.64322 6.95924 9.46857 6.70289 9.21215C6.44654 8.95573 6.27198 8.62906 6.20128 8.27344C6.13058 7.91782 6.16691 7.54921 6.30569 7.21424C6.44446 6.87927 6.67945 6.59297 6.98093 6.39154C7.28242 6.19011 7.63686 6.08259 7.99944 6.08259H7.99956ZM9.05204 5.37513C8.71832 5.23693 8.36064 5.16584 7.99944 5.16592L10.7495 7.91668C10.7496 7.55548 10.6786 7.19778 10.5405 6.86403C10.4024 6.53023 10.1998 6.22693 9.94444 5.97146C9.68904 5.71599 9.3858 5.51335 9.05204 5.37513ZM6.47168 5.62933C6.92387 5.32721 7.45549 5.16594 7.99932 5.16592L10.7495 7.9168C10.7493 8.46063 10.5879 8.99221 10.2857 9.44432C9.98339 9.89646 9.55384 10.2488 9.05132 10.4569C8.54881 10.6649 7.99589 10.7192 7.46249 10.613C6.92908 10.5069 6.43914 10.2449 6.05462 9.86025C5.67009 9.47563 5.40825 8.98562 5.3022 8.45218C5.19615 7.91875 5.25065 7.36585 5.45881 6.86339C5.66698 6.36093 6.01946 5.93147 6.47168 5.62933Z" fill="#2E333D"/>
</svg>
