<svg width="24" height="24" viewBox="0 0 24 24" fill="none" xmlns="http://www.w3.org/2000/svg">
<path fill-rule="evenodd" clip-rule="evenodd" d="M6.33771 9.82782L6.34114 9.82618C6.132 9.63145 6 9.37455 6 9.08982C6 8.48927 6.576 8 7.28571 8C7.66114 8 7.99542 8.13909 8.23028 8.35509L8.232 8.35345L12 11.8389L15.7663 8.35345L15.7697 8.35509C16.0046 8.13909 16.3389 8 16.7143 8C17.424 8 18 8.48927 18 9.08982C18 9.37455 17.868 9.63145 17.6588 9.82618L17.6623 9.82782L12.948 14.192C12.7046 14.4162 12.36 14.5455 12 14.5455C11.6383 14.5455 11.2954 14.4162 11.052 14.192L6.33771 9.82782Z" fill="#2E333D"/>
</svg>
