<svg width="24" height="24" viewBox="0 0 24 24" fill="none" xmlns="http://www.w3.org/2000/svg">
<path fill-rule="evenodd" clip-rule="evenodd" d="M17.6569 7.05024C17.8521 6.85498 17.8521 6.5384 17.6569 6.34313C17.4616 6.14787 17.145 6.14787 16.9497 6.34313L12 11.2929L7.05025 6.34313C6.85499 6.14787 6.53841 6.14787 6.34315 6.34313C6.14788 6.5384 6.14788 6.85498 6.34315 7.05024L11.2929 12L6.34315 16.9497C6.14788 17.145 6.14788 17.4616 6.34315 17.6568C6.53841 17.8521 6.85499 17.8521 7.05025 17.6568L12 12.7071L16.9497 17.6568C17.145 17.8521 17.4616 17.8521 17.6569 17.6568C17.8521 17.4616 17.8521 17.145 17.6569 16.9497L12.7071 12L17.6569 7.05024Z" fill="currentColor"/>
</svg>
