<svg width="24" height="24" viewBox="0 0 24 24" fill="none" xmlns="http://www.w3.org/2000/svg">
<g clip-path="url(#clip0_11345_30638)">
<path d="M13.5882 23.1413C13.062 23.2141 12.5314 23.2505 12.0002 23.2503C9.70512 23.2515 7.46455 22.5512 5.57871 21.2432C3.69288 19.9352 2.25189 18.0821 1.44887 15.9321C0.645848 13.7821 0.519162 11.4381 1.08579 9.21407C1.65242 6.99008 2.88529 4.99241 4.61917 3.48879C6.35305 1.98517 8.50509 1.04744 10.7869 0.801278C13.0687 0.555115 15.3712 1.01228 17.3859 2.1115C19.4006 3.21072 21.0311 4.89948 22.0591 6.95145C23.087 9.00343 23.4632 11.3206 23.1372 13.5923" stroke="#2E333D" stroke-width="1.5" stroke-linecap="round" stroke-linejoin="round"/>
<path d="M9.28902 22.9211C7.76702 20.6891 6.74902 16.6331 6.74902 12.0001C6.74902 7.3671 7.76702 3.3121 9.28902 1.0791" stroke="#2E333D" stroke-width="1.5" stroke-linecap="round" stroke-linejoin="round"/>
<path d="M0.773926 11.25H11.2489" stroke="#2E333D" stroke-width="1.5" stroke-linecap="round" stroke-linejoin="round"/>
<path d="M16.499 11.25H23.225" stroke="#2E333D" stroke-width="1.5" stroke-linecap="round" stroke-linejoin="round"/>
<path d="M2.99902 5.25H21" stroke="#2E333D" stroke-width="1.5" stroke-linecap="round" stroke-linejoin="round"/>
<path d="M2.04688 17.25H10.4989" stroke="#2E333D" stroke-width="1.5" stroke-linecap="round" stroke-linejoin="round"/>
<path d="M14.71 1.0791C16.058 3.0571 17.01 6.4651 17.21 10.4381C17.224 10.7101 17.2343 10.9811 17.241 11.2511" stroke="#2E333D" stroke-width="1.5" stroke-linecap="round" stroke-linejoin="round"/>
<path d="M13.0129 13.8462L15.1709 21.0372C15.2038 21.1481 15.265 21.2486 15.3485 21.3287C15.4319 21.4088 15.5348 21.4658 15.647 21.4941C15.7591 21.5225 15.8767 21.5212 15.9882 21.4903C16.0997 21.4595 16.2013 21.4002 16.2829 21.3182L17.3829 20.2182L20.2179 23.0542C20.3435 23.1791 20.5133 23.2492 20.6904 23.2492C20.8675 23.2492 21.0374 23.1791 21.1629 23.0542L23.0539 21.1632C23.116 21.1012 23.1652 21.0275 23.1988 20.9464C23.2324 20.8654 23.2497 20.7785 23.2497 20.6907C23.2497 20.6029 23.2324 20.516 23.1988 20.435C23.1652 20.3539 23.116 20.2802 23.0539 20.2182L20.2179 17.3822L21.3179 16.2822C21.3996 16.2005 21.4587 16.099 21.4895 15.9876C21.5202 15.8763 21.5215 15.7588 21.4933 15.6468C21.4651 15.5347 21.4083 15.4319 21.3285 15.3484C21.2487 15.2649 21.1486 15.2035 21.0379 15.1702L13.8459 13.0122C13.7301 12.977 13.6069 12.974 13.4894 13.0035C13.372 13.0329 13.2648 13.0937 13.1793 13.1793C13.0937 13.265 13.033 13.3723 13.0037 13.4897C12.9744 13.6072 12.9776 13.7304 13.0129 13.8462Z" stroke="#2E333D" stroke-width="1.5" stroke-linecap="round" stroke-linejoin="round"/>
</g>
<defs>
<clipPath id="clip0_11345_30638">
<rect width="24" height="24" fill="white"/>
</clipPath>
</defs>
</svg>
