<svg width="24" height="24" viewBox="0 0 24 24" fill="none" xmlns="http://www.w3.org/2000/svg">
<path fill-rule="evenodd" clip-rule="evenodd" d="M17.6569 7.05048C17.8521 6.85522 17.8521 6.53864 17.6569 6.34338C17.4616 6.14812 17.145 6.14812 16.9497 6.34338L12 11.2931L7.05025 6.34338C6.85499 6.14812 6.53841 6.14812 6.34315 6.34338C6.14788 6.53864 6.14788 6.85522 6.34315 7.05048L11.2929 12.0002L6.34315 16.95C6.14788 17.1452 6.14788 17.4618 6.34315 17.6571C6.53841 17.8523 6.85499 17.8523 7.05025 17.6571L12 12.7073L16.9497 17.6571C17.145 17.8523 17.4616 17.8523 17.6569 17.6571C17.8521 17.4618 17.8521 17.1452 17.6569 16.95L12.7071 12.0002L17.6569 7.05048Z" fill="#DD465B"/>
</svg>
